<?xml version="1.0" encoding="UTF-8" standalone="no"?>
<!-- Created with Inkscape (http://www.inkscape.org/) -->

<svg
   version="1.1"
   id="svg1"
   width="475.01334"
   height="472.89578"
   viewBox="0 0 475.01334 472.89578"
   sodipodi:docname="windows-media-player.png"
   inkscape:version="1.4.3 (0d15f75042, 2025-12-25)"
   inkscape:dataloss="true"
   xmlns:inkscape="http://www.inkscape.org/namespaces/inkscape"
   xmlns:sodipodi="http://sodipodi.sourceforge.net/DTD/sodipodi-0.dtd"
   xmlns="http://www.w3.org/2000/svg"
   xmlns:svg="http://www.w3.org/2000/svg">
  <defs
     id="defs1" />
  <sodipodi:namedview
     id="namedview1"
     pagecolor="#505050"
     bordercolor="#eeeeee"
     borderopacity="1"
     inkscape:showpageshadow="0"
     inkscape:pageopacity="0"
     inkscape:pagecheckerboard="0"
     inkscape:deskcolor="#505050"
     inkscape:zoom="0.58493464"
     inkscape:cx="97.446784"
     inkscape:cy="146.17018"
     inkscape:window-width="1908"
     inkscape:window-height="1035"
     inkscape:window-x="0"
     inkscape:window-y="0"
     inkscape:window-maximized="0"
     inkscape:current-layer="svg1">
    <inkscape:page
       x="0"
       y="0"
       width="475.01334"
       height="472.89578"
       id="page2"
       margin="0"
       bleed="0" />
  </sodipodi:namedview>
  <path
     style="display:inline;fill:#2094f1;stroke-width:0.964709"
     d="m 216.00694,450.36912 c -8.03958,-0.67264 -22.78557,-3.32169 -32.80867,-5.89391 C 105.61834,424.56592 45.966255,364.57772 26.690132,287.08523 23.870336,275.74928 20.63865,255.33825 20.63865,248.86461 v -2.10689 h 20.298617 20.298618 l 0.650615,6.69995 c 5.76855,59.40369 43.79065,113.41287 98.43352,139.82166 17.54208,8.47805 40.11917,14.90469 58.33019,16.60388 l 7.10194,0.66265 v 20.22228 20.22228 l -3.01637,-0.15535 c -1.65901,-0.0855 -4.68699,-0.29512 -6.72884,-0.46595 z"
     id="path6"
     inkscape:label="blue" />
  <path
     style="display:inline;fill:#010201;stroke-width:0.964709"
     d="M 217.11051,472.10045 C 170.68237,467.76856 128.18775,451.03146 90.886814,422.38548 80.736833,414.5906 58.634693,392.58338 50.806198,382.47698 20.491434,343.34137 4.1704816,300.61195 0.66907462,251.21442 -1.5420234,220.02045 3.4338794,185.09136 14.308467,155.47068 19.308725,141.85076 31.397776,118.18606 39.568597,106.02319 81.31322,43.883207 147.15642,5.9213202 222.44717,0.58456882 253.5963,-1.6233404 289.2115,3.406514 318.87215,14.202456 c 13.1605,4.790187 37.26417,16.890092 48.59306,24.393438 35.1555,23.284191 63.96278,55.482245 82.36131,92.055706 24.44801,48.59887 31.2757,104.35909 19.29335,157.56437 -20.07674,89.14685 -91.12219,159.47467 -181.00853,179.18015 -20.60294,4.51672 -51.24891,6.54724 -71.00083,4.70433 z m 10.20927,-40.14065 v -20.75105 l -3.01638,-0.44662 c -1.659,-0.24566 -6.77524,-0.9088 -11.3694,-1.47367 -49.69979,-6.11075 -97.32642,-37.0888 -124.778242,-81.16017 -12.463367,-20.0088 -21.415883,-44.86707 -24.192335,-67.17439 -0.569353,-4.57444 -1.238525,-9.6766 -1.487051,-11.33815 l -0.451865,-3.02098 -20.574701,0.24859 -20.574701,0.24859 0.234296,4.62065 c 0.494476,9.75176 3.194951,26.27364 6.207044,37.97556 22.822124,88.66344 98.683735,153.24842 190.258125,161.97674 4.59417,0.43789 8.66627,0.85236 9.04912,0.92105 0.38285,0.0687 0.69609,-9.21308 0.69609,-20.62615 z m 41.13233,18.34321 c 78.38815,-11.2068 145.16506,-65.05393 172.76567,-139.31367 6.56561,-17.66481 12.56217,-45.9306 12.56217,-59.21379 v -5.14566 h -20.37649 -20.37648 l -0.46709,3.00342 c -0.25691,1.65188 -0.72255,5.49857 -1.03479,8.5482 -1.47165,14.37427 -6.9027,33.7733 -13.88872,49.60886 -16.29133,36.92831 -48.79784,69.89351 -85.66314,86.87193 -16.09863,7.41428 -37.81256,13.63833 -52.65137,15.09194 -3.05294,0.29906 -6.90817,0.74867 -8.56718,0.99913 l -3.01637,0.45538 v 20.28898 20.28899 h 5.16785 c 2.84232,0 9.83799,-0.66767 15.54594,-1.48371 z m -3.76477,-61.77931 c 51.16036,-9.38842 93.9042,-43.01587 114.95867,-90.44035 7.78307,-17.53109 11.78041,-35.36148 12.57107,-56.07411 2.32009,-60.77754 -31.1861,-116.57253 -86.47155,-143.993686 -61.80579,-30.655208 -138.89987,-15.429503 -184.427,36.423436 -36.472281,41.53996 -48.129387,98.239 -30.937443,150.47678 18.528083,56.29766 67.842053,96.53981 128.585653,104.931 8.81129,1.21719 36.19635,0.42472 45.7206,-1.32307 z m -73.60018,-60.99675 c -5.28308,-2.86193 -5.06851,0.99294 -5.06851,-91.06249 0,-92.43592 -0.24015,-88.27476 5.25775,-91.10562 5.78515,-2.97878 4.83957,-3.51796 71.99307,41.05109 35.1025,23.29714 64.4492,43.11434 65.21489,44.0382 0.80004,0.9653 1.39218,3.52424 1.39218,6.01633 0,2.4921 -0.59214,5.05105 -1.39218,6.01635 -0.76569,0.92386 -30.11239,20.74105 -65.21489,44.03819 -67.60884,44.87125 -66.3602,44.16188 -72.18231,41.00795 z M 300.6409,236.46446 c 0,-0.34176 -21.09142,-14.62122 -46.86983,-31.7321 l -46.86982,-31.1107 v 62.8428 62.84281 l 46.86982,-31.1107 c 25.77841,-17.11088 46.86983,-31.39033 46.86983,-31.73211 z M 62.115236,225.42224 c 0,-3.84205 3.210777,-23.57226 5.084334,-31.24321 15.00903,-61.45181 64.25785,-110.916502 126.2881,-126.841644 8.52003,-2.187364 28.4459,-5.533457 32.95153,-5.533457 0.52868,0 0.88058,-8.124694 0.88058,-20.330857 V 21.142216 l -4.87261,0.01693 C 204.17231,21.222644 171.29728,29.35468 148.99341,39.32882 123.9949,50.50798 103.53368,64.717615 83.461891,84.838266 49.964187,118.41752 29.432534,159.77037 22.63275,207.35438 c -0.726322,5.08272 -1.328238,11.42455 -1.33759,14.09297 l -0.01701,4.85168 h 20.418539 c 12.258806,0 20.41854,-0.35039 20.41854,-0.87679 z m 391.664714,-3.85628 c 0,-11.15062 -4.51867,-34.48236 -9.88152,-51.02236 C 424.61669,111.07528 380.54903,62.714454 323.37973,38.283705 301.26678,28.833952 269.45793,21.142216 252.49182,21.142216 h -4.7535 v 20.330856 c 0,12.206163 0.3519,20.330857 0.88059,20.330857 3.85862,0 23.67391,3.196988 31.37795,5.0625 61.77002,14.957455 111.38108,63.928681 127.38869,125.745781 2.1968,8.48344 5.55732,28.32374 5.55732,32.81003 0,0.5264 8.15973,0.87679 20.41854,0.87679 h 20.41854 z"
     id="path2"
     inkscape:label="black border" />
  <path
     style="display:inline;fill:#f04234;stroke-width:0.964709"
     d="m 21.29516,221.44735 c 0.0094,-2.66842 0.611268,-9.01025 1.33759,-14.09297 C 29.432534,159.77037 49.964187,118.41752 83.461891,84.838266 103.53368,64.717615 123.9949,50.50798 148.99341,39.328817 c 22.30387,-9.97414 55.1789,-18.106174 73.45376,-18.169671 l 4.87261,-0.01693 v 20.330856 c 0,12.206163 -0.3519,20.330857 -0.88058,20.330857 -0.48432,0 -5.69444,0.628332 -11.57807,1.396296 C 135.67084,73.536586 73.981877,135.03813 63.499846,214.10165 c -0.761536,5.74408 -1.38461,10.83834 -1.38461,11.32059 0,0.5264 -8.159734,0.87679 -20.41854,0.87679 H 21.278157 Z m 105.78816,-93.45499 c 0,-0.1919 0.73089,-0.91965 1.6242,-1.61723 1.47204,-1.14949 1.50487,-1.11681 0.35041,0.34892 -1.21245,1.53937 -1.97461,2.02891 -1.97461,1.26831 z"
     id="path5"
     inkscape:label="red" />
  <path
     style="display:inline;fill:#4aad4e;stroke-width:0.964709"
     d="m 250.75469,472.40468 c 0.89331,-0.23245 2.3551,-0.23245 3.24841,0 0.89331,0.23244 0.16242,0.42263 -1.6242,0.42263 -1.78663,0 -2.51752,-0.19019 -1.62421,-0.42263 z m 11.65945,-0.91839 c 0.66999,-0.26696 1.47049,-0.23413 1.77889,0.073 0.30841,0.30709 -0.23976,0.5255 -1.21815,0.48537 -1.0812,-0.0444 -1.30112,-0.26331 -0.56074,-0.55832 z m 7.42493,-0.92413 c 0.66998,-0.26696 1.47048,-0.23413 1.77889,0.073 0.3084,0.30709 -0.23977,0.5255 -1.21816,0.48537 -1.08119,-0.0444 -1.30112,-0.26331 -0.56073,-0.55832 z M 81.487274,415.05256 c -1.154456,-1.46572 -1.121628,-1.49841 0.350415,-0.34891 0.893311,0.69757 1.624202,1.42532 1.624202,1.61723 0,0.76058 -0.762155,0.27104 -1.974617,-1.26832 z m 311.037056,0.34419 c 0,-0.19191 0.73089,-0.91966 1.6242,-1.61723 1.47204,-1.1495 1.50487,-1.11681 0.35041,0.34891 -1.21245,1.53936 -1.97461,2.0289 -1.97461,1.26832 z m -323.483118,-11.89582 -4.605687,-4.85168 4.872605,4.58591 c 4.527713,4.26131 5.29824,5.11745 4.605688,5.11745 -0.146805,0 -2.339478,-2.18325 -4.872606,-4.85168 z m 333.692388,2.71426 c 0,-0.15905 1.35737,-1.51059 3.01637,-3.00342 l 3.01638,-2.71426 -2.72596,3.00342 c -2.54098,2.79961 -3.30679,3.42821 -3.30679,2.71426 z m 12.0655,-12.99756 c 0,-0.1919 0.73089,-0.91965 1.6242,-1.61723 1.47204,-1.1495 1.50487,-1.11681 0.35041,0.34891 -1.21245,1.53937 -1.97461,2.02891 -1.97461,1.26832 z M 57.356273,391.02518 c -1.154456,-1.46572 -1.121628,-1.49841 0.350415,-0.34891 0.893311,0.69758 1.624202,1.42533 1.624202,1.61723 0,0.76059 -0.762155,0.27105 -1.974617,-1.26832 z m 188.304617,-0.88463 c 1.15448,-0.22104 2.82509,-0.21266 3.71246,0.0187 0.88735,0.2313 -0.0572,0.41216 -2.09909,0.4019 -2.04185,-0.0102 -2.76787,-0.1995 -1.61337,-0.42055 z m 11.18456,-0.90182 c 0.66998,-0.26695 1.47048,-0.23412 1.77889,0.073 0.3084,0.30708 -0.23976,0.5255 -1.21815,0.48537 -1.0812,-0.0444 -1.30112,-0.26332 -0.56074,-0.55833 z m 11.13739,-1.84826 c 0.66998,-0.26695 1.47048,-0.23412 1.77888,0.073 0.30841,0.30708 -0.23976,0.5255 -1.21815,0.48537 -1.08119,-0.0444 -1.30112,-0.26332 -0.56073,-0.55833 z m 66.99833,-31.13804 c 0,-0.1919 0.73089,-0.91965 1.6242,-1.61722 1.47205,-1.1495 1.50487,-1.11681 0.35042,0.3489 -1.21246,1.53937 -1.97462,2.02891 -1.97462,1.26832 z m 11.60144,-10.74065 c 2.51394,-2.54135 4.77963,-4.62065 5.03487,-4.62065 0.25523,0 -1.59281,2.0793 -4.10675,4.62065 -2.51394,2.54136 -4.77962,4.62065 -5.03485,4.62065 -0.25523,0 1.5928,-2.07929 4.10673,-4.62065 z m 8.8171,-9.5902 c 0,-0.1919 0.73089,-0.91966 1.6242,-1.61723 1.47205,-1.1495 1.50487,-1.11681 0.35041,0.34891 -1.21245,1.53937 -1.97461,2.02891 -1.97461,1.26832 z m 117.01582,-66.72752 c 0.0446,-1.07655 0.26446,-1.29553 0.56074,-0.55833 0.2681,0.66711 0.23513,1.46417 -0.0733,1.77125 -0.3084,0.30708 -0.52776,-0.23873 -0.48746,-1.21292 z m -83.53039,-1.84826 c 0.0446,-1.07655 0.26445,-1.29553 0.56074,-0.55833 0.26811,0.66711 0.23513,1.46417 -0.0733,1.77125 -0.3084,0.30708 -0.52776,-0.23873 -0.48746,-1.21292 z m 84.45851,-5.54478 c 0.0446,-1.07655 0.26445,-1.29553 0.56073,-0.55833 0.2681,0.66711 0.23513,1.46417 -0.0733,1.77125 -0.30841,0.30708 -0.52777,-0.23873 -0.48746,-1.21292 z m -82.60228,-5.54478 c 0.0446,-1.07655 0.26446,-1.29553 0.56074,-0.55833 0.26811,0.66711 0.23513,1.46417 -0.0733,1.77125 -0.3084,0.30708 -0.52775,-0.23873 -0.48746,-1.21292 z M 0.00477419,253.48385 c 0.04453462,-1.07655 0.26445748,-1.29553 0.56073641,-0.55833 0.26810527,0.66711 0.23513275,1.46417 -0.0732723,1.77125 -0.30840503,0.30708 -0.52776389,-0.23873 -0.48746411,-1.21292 z M 474.41381,251.25054 c 0,-1.77895 0.19101,-2.5067 0.42445,-1.61723 0.23345,0.88948 0.23345,2.34498 0,3.23446 -0.23344,0.88947 -0.42445,0.16172 -0.42445,-1.61723 z m -82.58354,-5.08271 c 0.0103,-2.03309 0.20037,-2.75599 0.42236,-1.60645 0.22201,1.14953 0.21358,2.81296 -0.0188,3.69652 -0.2323,0.88354 -0.41394,-0.057 -0.40364,-2.09007 z m 0,-18.4826 c 0.0103,-2.03309 0.20037,-2.75599 0.42236,-1.60645 0.22201,1.14953 0.21358,2.81297 -0.0188,3.69652 -0.2323,0.88355 -0.41394,-0.057 -0.40364,-2.09007 z M 82.749101,227.22316 c 0,-1.77895 0.191001,-2.5067 0.424448,-1.61722 0.233447,0.88947 0.233447,2.34498 0,3.23445 -0.233447,0.88948 -0.424448,0.16172 -0.424448,-1.61723 z m 330.193769,-1.80092 c 0,-4.48629 -3.36052,-24.32659 -5.55732,-32.81003 -16.00761,-61.8171 -65.61867,-110.788326 -127.38869,-125.745781 -7.70404,-1.865512 -27.51933,-5.0625 -31.37795,-5.0625 -0.52869,0 -0.88059,-8.124694 -0.88059,-20.330857 V 21.142216 h 4.7535 c 11.20405,0 34.64154,4.501277 51.2424,9.841339 60.00513,19.302071 108.38087,63.141065 133.11402,120.630395 9.21527,21.41981 16.93171,53.29967 16.93171,69.95201 v 4.73307 h -20.41854 c -12.25881,0 -20.41854,-0.35039 -20.41854,-0.87679 z M 0.14682721,220.75425 c 0,-1.77895 0.19100176,-2.5067 0.42444836,-1.61722 0.23344659,0.88947 0.23344659,2.34498 0,3.23445 -0.2334466,0.88948 -0.42444836,0.16172 -0.42444836,-1.61723 z m 474.26698279,0 c 0,-1.77895 0.19101,-2.5067 0.42445,-1.61722 0.23345,0.88947 0.23345,2.34498 0,3.23445 -0.23344,0.88948 -0.42445,0.16172 -0.42445,-1.61723 z m -83.67244,-3.31146 c 0.0446,-1.07655 0.26446,-1.29553 0.56074,-0.55833 0.26811,0.66711 0.23513,1.46417 -0.0733,1.77125 -0.3084,0.30708 -0.52775,-0.23873 -0.48746,-1.21292 z M 0.93288967,210.04976 c 0.044535,-1.07656 0.26445733,-1.29554 0.56073633,-0.55833 0.2681052,0.66711 0.2351328,1.46417 -0.073272,1.77125 -0.308405,0.30708 -0.52776384,-0.23873 -0.48746433,-1.21292 z m 472.41076033,0 c 0.0446,-1.07656 0.26445,-1.29554 0.56073,-0.55833 0.2681,0.66711 0.23513,1.46417 -0.0733,1.77125 -0.30841,0.30708 -0.52777,-0.23873 -0.48746,-1.21292 z m -1.85623,-12.93782 c 0.0446,-1.07656 0.26445,-1.29554 0.56073,-0.55833 0.2681,0.66711 0.23513,1.46417 -0.0733,1.77125 -0.30841,0.30708 -0.52777,-0.23873 -0.48746,-1.21292 z M 355.28133,136.88948 c -1.15446,-1.46573 -1.12163,-1.49841 0.35041,-0.34892 1.54601,1.20726 2.03766,1.96615 1.27379,1.96615 -0.19273,0 -0.92362,-0.72776 -1.6242,-1.61723 z m -230.98236,-6.12473 c 0,-0.1919 0.73089,-0.91965 1.6242,-1.61723 1.47204,-1.14949 1.50488,-1.11681 0.35042,0.34892 -1.21246,1.53937 -1.97462,2.02891 -1.97462,1.26831 z m 222.22526,-3.57863 -2.72596,-3.00343 3.01637,2.71425 c 1.65901,1.49285 3.01638,2.84439 3.01638,3.00342 0,0.71395 -0.76581,0.0854 -3.30679,-2.71424 z m -9.80521,-8.77924 c -1.15446,-1.46572 -1.12163,-1.49841 0.35041,-0.34891 1.54601,1.20726 2.03766,1.96614 1.27379,1.96614 -0.19273,0 -0.92362,-0.72775 -1.6242,-1.61723 z M 255.85933,83.371011 c 0.63808,-0.256365 1.68221,-0.256365 2.32029,0 0.63808,0.256364 0.11601,0.466118 -1.16015,0.466118 -1.27616,0 -1.79822,-0.209754 -1.16014,-0.466118 z M 56.546544,82.710004 c 0,-0.1919 0.73089,-0.919652 1.624202,-1.617227 1.472042,-1.149498 1.50487,-1.116811 0.350414,0.34891 -1.212462,1.539367 -1.974616,2.028908 -1.974616,1.268317 z M 226.62369,82.421889 c 0.89331,-0.232445 2.35509,-0.232445 3.24841,0 0.89331,0.232443 0.16242,0.422624 -1.62421,0.422624 -1.78662,0 -2.51751,-0.190181 -1.6242,-0.422624 z m 18.56231,0 c 0.89331,-0.232445 2.35509,-0.232445 3.2484,0 0.89332,0.232443 0.16242,0.422624 -1.6242,0.422624 -1.78662,0 -2.51751,-0.190181 -1.6242,-0.422624 z m 171.35095,-0.980202 c -1.15446,-1.465721 -1.12163,-1.498408 0.35041,-0.34891 0.89331,0.697575 1.6242,1.425327 1.6242,1.617227 0,0.760591 -0.76216,0.27105 -1.97461,-1.268317 z M 69.076101,69.196967 c 3.545864,-3.5579 6.655852,-6.468908 6.911083,-6.468908 0.255232,0 -2.437103,2.911008 -5.982967,6.468908 -3.545864,3.557899 -6.655851,6.468909 -6.911083,6.468909 -0.255231,0 2.437104,-2.91101 5.982967,-6.468909 z m 336.415039,0.231032 -6.00595,-6.237875 6.26478,5.980147 c 5.819,5.554615 6.68905,6.495605 6.00595,6.495605 -0.14237,0 -2.96152,-2.807045 -6.26478,-6.237877 z M 391.47783,56.490182 c -1.15446,-1.465722 -1.12163,-1.498408 0.35041,-0.34891 1.54601,1.207255 2.03766,1.966137 1.27379,1.966137 -0.19273,0 -0.92362,-0.727752 -1.6242,-1.617227 z M 197.44607,2.952463 c 0.66999,-0.266954 1.47048,-0.2341231 1.77889,0.072957 0.3084,0.3070807 -0.23976,0.5254976 -1.21815,0.4853708 -1.08121,-0.044343 -1.30113,-0.2633217 -0.56074,-0.5583278 z m 73.32111,-0.9241299 c 0.66999,-0.2669539 1.47049,-0.234123 1.77889,0.072957 0.30841,0.3070806 -0.23976,0.5254976 -1.21815,0.4853709 -1.0812,-0.044344 -1.30112,-0.2633219 -0.56074,-0.5583279 z M 210.43969,1.1042033 c 0.66998,-0.26695395 1.47048,-0.234123 1.77889,0.072958 0.3084,0.3070807 -0.23977,0.5254975 -1.21816,0.4853708 -1.0812,-0.044344 -1.30113,-0.2633218 -0.56073,-0.5583288 z m 52.90257,0 c 0.66998,-0.26695395 1.47048,-0.234123 1.77889,0.072958 0.3084,0.3070806 -0.23977,0.5254975 -1.21815,0.4853708 -1.0812,-0.044344 -1.30113,-0.2633218 -0.56074,-0.5583288 z M 220.12688,0.17433326 c 0.89331,-0.23244411 2.3551,-0.23244411 3.24841,0 0.89331,0.23244411 0.16242,0.42262565 -1.6242,0.42262565 -1.78663,0 -2.51752,-0.19018154 -1.62421,-0.42262565 z m 31.55593,0 c 0.89331,-0.23244411 2.35509,-0.23244411 3.2484,0 0.89331,0.23244411 0.16242,0.42262565 -1.6242,0.42262565 -1.78662,0 -2.51751,-0.19018154 -1.6242,-0.42262565 z"
     id="path4"
     inkscape:label="green" />
  <path
     style="display:inline;fill:#1564bd;stroke-width:0.964709"
     d="m 222.44717,472.42967 c 0.63808,-0.25637 1.68221,-0.25637 2.32029,0 0.63808,0.25637 0.11602,0.46612 -1.16014,0.46612 -1.27616,0 -1.79823,-0.20975 -1.16015,-0.46612 z m 3.71952,-33.81042 c 0.43683,-25.75268 0.7774,-28.19597 0.96631,-6.93236 0.10274,11.56318 -0.12646,21.02458 -0.50931,21.02534 -0.38285,7.6e-4 -0.58849,-6.34108 -0.457,-14.09298 z m -10.68037,12.53044 c 0.8933,-0.23244 2.35508,-0.23244 3.24839,0 0.89331,0.23244 0.16242,0.42263 -1.6242,0.42263 -1.78661,0 -2.51751,-0.19019 -1.62419,-0.42263 z m -7.83098,-0.91839 c 0.66999,-0.26696 1.47048,-0.23412 1.77889,0.073 0.3084,0.30708 -0.23976,0.52549 -1.21815,0.48537 -1.08121,-0.0444 -1.30113,-0.26332 -0.56074,-0.55833 z m -11.13738,-1.84826 c 0.66998,-0.26696 1.47048,-0.23412 1.77888,0.073 0.30841,0.30708 -0.23976,0.52549 -1.21815,0.48537 -1.0812,-0.0444 -1.30113,-0.26332 -0.56073,-0.55833 z m 23.60892,-37.89506 c 0.89331,-0.23245 2.3551,-0.23245 3.24841,0 0.89331,0.23244 0.16242,0.42263 -1.6242,0.42263 -1.78663,0 -2.51752,-0.19019 -1.62421,-0.42263 z m -7.88897,-0.89914 c 0.63808,-0.25636 1.68221,-0.25636 2.32029,0 0.63808,0.25637 0.11601,0.46612 -1.16014,0.46612 -1.27616,0 -1.79823,-0.20975 -1.16015,-0.46612 z m -5.51068,-0.94338 c 0.66998,-0.26695 1.47048,-0.23413 1.77888,0.073 0.30841,0.30709 -0.23976,0.52551 -1.21815,0.48538 -1.0812,-0.0444 -1.30113,-0.26332 -0.56073,-0.55833 z m -103.89331,-2.8342 c -1.15445,-1.46572 -1.12162,-1.49841 0.35043,-0.34891 0.89331,0.69757 1.6242,1.42533 1.6242,1.61723 0,0.76058 -0.76216,0.27105 -1.97463,-1.26832 z m -5.074418,-4.15859 -1.768053,-2.07929 2.088262,1.76046 c 1.962439,1.65439 2.510779,2.39812 1.76805,2.39812 -0.176119,0 -1.115836,-0.93568 -2.088259,-2.07929 z m -8.728919,-7.62407 c -2.254419,-2.28722 -3.890117,-4.15858 -3.634885,-4.15858 0.255231,0 2.308581,1.87136 4.563001,4.15858 2.254418,2.28722 3.890117,4.15859 3.634886,4.15859 -0.255232,0 -2.308582,-1.87137 -4.563002,-4.15859 z m 136.200937,-3.84649 c 0.63808,-0.25636 1.68221,-0.25636 2.32029,0 0.63808,0.25637 0.11601,0.46612 -1.16015,0.46612 -1.27616,0 -1.79822,-0.20975 -1.16014,-0.46612 z M 78.821313,383.86317 c -2.254418,-2.28722 -3.890117,-4.15858 -3.634885,-4.15858 0.255231,0 2.308582,1.87136 4.563001,4.15858 2.254419,2.28722 3.890117,4.15859 3.634886,4.15859 -0.255232,0 -2.308582,-1.87137 -4.563002,-4.15859 z M 131.6055,376.2391 c -1.15445,-1.46572 -1.12162,-1.49841 0.35043,-0.34891 1.546,1.20725 2.03765,1.96614 1.27378,1.96614 -0.19273,0 -0.92362,-0.72775 -1.62421,-1.61723 z m -60.76135,-1.38619 -1.768049,-2.0793 2.08826,1.76046 c 1.962449,1.6544 2.510776,2.39813 1.768048,2.39813 -0.176115,0 -1.115832,-0.93568 -2.088259,-2.07929 z m -4.206723,-5.08272 c -1.154455,-1.46572 -1.121628,-1.49841 0.350414,-0.3489 0.893312,0.69757 1.624202,1.42532 1.624202,1.61722 0,0.76059 -0.762154,0.27105 -1.974616,-1.26832 z m 55.253073,-1.38619 -1.76805,-2.07929 2.08826,1.76045 c 1.96244,1.6544 2.51078,2.39813 1.76805,2.39813 -0.17612,0 -1.11583,-0.93568 -2.08826,-2.07929 z m -9.77542,-8.77924 c -1.15445,-1.46571 -1.12163,-1.49841 0.35042,-0.3489 0.89331,0.69757 1.6242,1.42532 1.6242,1.61722 0,0.76059 -0.76215,0.27105 -1.97462,-1.26832 z m -7.85877,-8.77923 -1.76805,-2.07929 2.08826,1.76046 c 1.14854,0.96824 2.08826,1.90393 2.08826,2.07929 0,0.73953 -0.74694,0.19356 -2.40847,-1.76046 z m 23.25618,-5.54478 -4.60569,-4.85168 4.87261,4.58591 c 4.5277,4.26131 5.29823,5.11745 4.60568,5.11745 -0.14681,0 -2.33948,-2.18325 -4.8726,-4.85168 z m -31.175369,-4.15858 c -1.154456,-1.46572 -1.121628,-1.49841 0.350417,-0.34891 0.893311,0.69757 1.624202,1.42533 1.624202,1.61723 0,0.76058 -0.762157,0.27105 -1.974619,-1.26832 z m 21.346649,-6.46891 c -1.15445,-1.46572 -1.12163,-1.49841 0.35042,-0.34891 1.54601,1.20725 2.03766,1.96614 1.27378,1.96614 -0.19273,0 -0.92362,-0.72776 -1.6242,-1.61723 z m 89.21748,-98.1888 v -62.8428 l 46.86982,31.1107 c 25.77841,17.11088 46.86983,31.39034 46.86983,31.7321 0,0.34178 -21.09142,14.62123 -46.86983,31.73211 l -46.86982,31.1107 z M 65.90097,275.66297 c 0.04453,-1.07655 0.264458,-1.29553 0.560736,-0.55833 0.268106,0.66711 0.235133,1.46417 -0.07327,1.77125 -0.308406,0.30708 -0.527764,-0.23873 -0.487464,-1.21292 z m -42.69331,-3.69652 c 0.04453,-1.07655 0.264458,-1.29553 0.560736,-0.55833 0.268106,0.66711 0.235133,1.46417 -0.07327,1.77125 -0.308405,0.30708 -0.527764,-0.23873 -0.487464,-1.21292 z m 40.837079,-5.54478 c 0.04453,-1.07655 0.264458,-1.29553 0.560736,-0.55833 0.268106,0.66711 0.235133,1.46417 -0.07327,1.77125 -0.308405,0.30708 -0.527765,-0.23873 -0.487464,-1.21292 z m -41.691923,-1.30918 c 0,-1.27068 0.210658,-1.7905 0.468129,-1.15517 0.257471,0.63534 0.257471,1.67499 0,2.31033 -0.257471,0.63534 -0.468129,0.11552 -0.468129,-1.15516 z m 40.837079,-4.62065 c 0,-1.27068 0.210658,-1.7905 0.468129,-1.15516 0.257471,0.63533 0.257471,1.67498 0,2.31032 -0.257471,0.63534 -0.468129,0.11552 -0.468129,-1.15516 z m -41.730804,-3.23446 c 0.01892,-1.52481 0.226924,-2.03671 0.462242,-1.13757 0.235317,0.89915 0.219841,2.14672 -0.03439,2.77239 -0.254232,0.62567 -0.446765,-0.11 -0.427851,-1.63482 z m 40.87147,-5.08271 c 0,-1.77895 0.191002,-2.5067 0.424448,-1.61723 0.233447,0.88948 0.233447,2.34498 0,3.23446 -0.233446,0.88947 -0.424448,0.16172 -0.424448,-1.61723 z M 0.07804646,250.32641 c 0,-1.27068 0.21065778,-1.7905 0.4681284,-1.15516 0.25747061,0.63534 0.25747061,1.67498 0,2.31032 -0.25747062,0.63534 -0.4681284,0.11552 -0.4681284,-1.15516 z M 82.68032,247.55402 c 0,-1.27068 0.210658,-1.7905 0.468129,-1.15516 0.25747,0.63534 0.25747,1.67498 0,2.31032 -0.257471,0.63534 -0.468129,0.11552 -0.468129,-1.15516 z M 21.155884,247.3045 c 0.393951,-0.39136 9.875379,-0.59861 21.069842,-0.46053 l 20.353568,0.25106 -21.069842,0.46053 c -11.588413,0.25329 -20.747518,0.14031 -20.353568,-0.25106 z"
     id="path3"
     inkscape:label="middle blue" />
  <path
     style="fill:#fcbf06;stroke-width:0.964709"
     d="M 247.73832,431.59886 V 411.411 l 9.51318,-1.13249 c 51.71295,-6.15611 97.46341,-33.96652 126.1509,-76.68356 15.35112,-22.85854 24.50755,-47.16265 28.31784,-75.16468 l 1.6057,-11.80038 h 20.227 20.22701 l -0.0181,3.92755 c -0.01,2.16016 -0.60707,8.29407 -1.32689,13.63092 -7.49153,55.54305 -36.21703,106.4606 -79.40104,140.74277 -24.38263,19.35647 -55.59076,34.48506 -85.85068,41.61736 -10.54566,2.48562 -29.34744,5.23823 -35.77997,5.23823 h -3.66493 z"
     id="path7"
     inkscape:label="yellow" />
</svg>
